<svg width="202" height="213" viewBox="0 0 202 213" fill="none" xmlns="http://www.w3.org/2000/svg">
<path d="M194.897 410.632C190.41 348.625 190.738 339.631 199.428 286.419C205.473 249.404 200.564 198.391 187.841 165.987C178.793 142.944 148.333 85.3486 145.185 85.3314C141.655 85.3146 141.716 88.4275 145.488 100.86C150.742 118.179 151.785 140.842 148.815 173.154C143.545 230.509 145.213 246.538 161.549 295.502C166.909 311.567 171.279 326.056 171.26 327.701C171.218 331.717 147.601 287.485 140.849 270.735C137.894 263.407 131.094 240.924 125.736 220.772C101.292 128.835 76.8751 79.0287 32.1142 29.8013C8.72002 4.07287 3.97768 2.96428 15.643 25.9508C22.0406 38.5573 32.5814 70.6597 46.8018 120.846C50.8168 135.016 58.8429 155.773 64.8328 167.478L75.6279 188.574L55.8508 167.478C40.9446 151.578 35.17 143.648 32.4043 135.279C15.3681 83.7323 -37.7289 48.5092 -144.913 17.6511C-160.566 13.1447 -178.882 7.02299 -185.615 4.04725C-197.921 -1.39203 -202 -1.35507 -202 4.19641C-202 7.81404 -177.701 29.6902 -148.16 52.6672C-123.802 71.6128 -96.4073 86.9206 -41.5135 112.26C3.95795 133.249 22.6862 145.223 44.6407 167.342C61.9901 184.822 82.4146 208.079 82.4146 210.354C82.4146 211.077 75.3834 206.383 66.7896 199.923C35.6764 176.531 6.55225 163.888 -51.9188 148.391C-68.9748 143.87 -91.1281 136.955 -101.148 133.023C-112.999 128.374 -120.41 126.564 -122.354 127.844C-124.659 129.363 -123.828 130.944 -118.716 134.766C-115.072 137.491 -97.0737 152.586 -78.72 168.31C-32.2944 208.084 -21.8882 214.355 30.198 233.949C53.1083 242.568 63.5938 245.585 84.6365 249.612C91.358 250.898 101.99 254.328 108.262 257.234C118.671 262.057 120.794 264.427 132.579 284.391C162.507 335.087 175.278 363.325 185.658 401.75C193.504 430.794 196.57 433.741 194.898 410.633L194.897 410.632Z" fill="#DEEDE4"/>
</svg>
