<svg width="187" height="46" viewBox="0 0 187 46" fill="none" xmlns="http://www.w3.org/2000/svg">
<path d="M32.8286 2.53226C33.3704 2.6883 49.2504 12.0245 49.2753 12.0621L49.1719 12.2831C49.2511 12.4967 49.4696 12.1349 49.9352 12.3748C50.5482 12.6906 51.1084 13.0574 51.6914 13.4198C51.368 13.7535 51.2477 13.9047 50.9816 14.2874C51.4472 14.0764 51.6598 13.936 52.0888 13.65C53.1762 14.1998 54.8619 15.2575 55.9779 15.9075L63.2584 20.162C63.3581 21.8857 63.273 24.5134 63.2701 26.2898C63.2862 29.6284 63.2818 32.9671 63.2584 36.3057C62.0947 34.7157 60.7316 33.1838 59.5796 31.5934C59.4293 28.7143 59.6126 25.3059 59.5437 22.339L50.7205 17.1994C50.0254 16.7936 47.5852 15.4512 47.036 15.0495C46.9157 14.8647 46.9106 14.8254 46.9253 14.6043L46.9289 14.5489L46.8622 14.5239L46.6642 14.7006C46.6195 14.7103 46.5645 14.7223 46.4992 14.7365C42.9576 12.7189 39.3163 10.5639 35.8078 8.52081C34.9198 8.00394 33.3646 7.02492 32.8982 6.85565C30.041 8.41544 26.9054 10.3402 24.068 11.9905L6.26614 22.3713C6.14325 26.1168 6.26065 30.437 6.24495 34.2563C5.1291 35.4767 3.74421 36.8079 2.56984 37.984C2.55408 32.1411 2.48772 26.0404 2.58099 20.2088C3.14244 19.8117 4.47174 19.0867 5.10036 18.7212L9.97528 15.8844L25.9805 6.56426L30.3829 4.01091C31.0585 3.61858 32.231 2.98425 32.8286 2.53226ZM15.7421 14.8506C16.1038 14.6047 17.3603 13.5716 17.4761 13.1943L17.3758 13.1459C16.9944 13.4451 15.7248 14.4141 15.6409 14.8218L15.7421 14.8506ZM4.8916 33.8432C5.14706 33.6145 5.55006 33.1821 5.69898 32.8694L5.6302 32.7735C5.25551 33.0101 4.99587 33.3025 4.82253 33.7153C4.85318 33.7925 4.84181 33.8038 4.8916 33.8432Z" fill="black"/>
<path d="M17.6336 13.5054L17.7259 13.5534C17.6194 13.927 16.4635 14.9501 16.1309 15.1936L16.0377 15.1651C16.1149 14.7613 17.2828 13.8017 17.6336 13.5054Z" fill="black"/>
<path d="M58.9444 18.57L59.0746 18.5884L59.0863 18.6903C58.8462 19.0538 57.8384 19.9201 57.4783 20.2476L57.4331 20.2582L57.3981 20.1763C57.7379 19.6611 58.4853 18.9466 58.9444 18.57Z" fill="black"/>
<path d="M5.8423 32.9195L5.90854 32.9952C5.76512 33.242 5.37701 33.5832 5.13098 33.7636C5.08303 33.7325 5.09397 33.7236 5.06445 33.6627C5.23139 33.3369 5.48145 33.1062 5.8423 32.9195Z" fill="black"/>
<path d="M32.9516 0H33.7598C35.6623 1.09048 37.7143 2.18147 39.5673 3.31021L38.4877 4.06744C36.8661 3.1504 34.917 2.11477 33.356 1.1508C30.6973 2.72051 27.7784 4.30215 25.0732 5.83317L10.9339 13.8608L4.82441 17.3198C3.67008 17.9755 2.3456 18.6896 1.23593 19.3979C1.13558 22.8608 1.22003 26.7208 1.23926 30.2095C1.23489 31.2213 1.19689 32.4411 1.23275 33.4344C1.22964 34.9469 1.28525 36.9423 1.21101 38.4249C1.04774 38.5568 0.839886 38.6899 0.780583 38.8772C0.989843 38.8248 1.04241 38.7691 1.21049 38.6381C1.22461 39.5646 1.17914 41.1187 1.25618 41.9717L11.1323 32.162L14.1078 29.2713C14.5768 28.809 15.0452 28.2582 15.5218 27.8226C16.4189 28.385 17.739 29.444 18.6333 30.1222C19.4275 30.7245 20.723 31.6486 21.4529 32.2822C22.8085 30.9383 24.7021 29.1801 25.9511 27.8193C26.2389 28.0285 26.4016 28.1476 26.6612 28.3974C26.5687 28.5318 26.4374 28.6945 26.3997 28.8457C26.8555 28.8202 26.724 28.4214 27.1425 28.8001C27.4629 29.09 27.7883 29.3852 28.1108 29.673C30.5238 27.1625 32.8451 24.4957 35.2431 21.9695C36.0823 21.0852 37.2292 19.7239 38.0625 18.9316C38.7155 19.567 39.3181 20.265 39.9422 20.9288C44.2435 25.5085 48.4649 30.1928 52.7936 34.7456C54.254 33.5924 55.9355 32.2491 57.4417 31.1789L62.8692 37.8691C63.3986 38.5273 64.9396 40.5402 65.4653 41.0756L65.4639 25.2683L65.469 21.5582C65.4698 21.0353 65.5053 19.8882 65.4114 19.434C64.9588 19.0474 63.6633 18.3514 63.0866 18.0231L58.8688 15.6273L45.681 8.14617C43.6364 6.98904 40.5981 5.39117 38.6755 4.15558C39.0179 3.92306 39.4253 3.66001 39.7507 3.41478C45.4599 6.53006 51.2844 9.95975 56.9685 13.173L63.4238 16.8281C64.2275 17.2854 65.9482 18.2078 66.6492 18.7004C66.7431 26.4284 66.6055 34.1791 66.6662 41.9093C66.6758 43.1164 66.6721 44.3413 66.6544 45.5477C66.102 45.5534 62.2983 45.64 62.0196 45.4977C62.7213 44.9337 63.772 44.4724 64.5906 44.0312C65.0483 43.8136 66.2343 43.3617 66.536 43.0578L66.471 42.9995C65.7885 43.0656 65.0734 43.5662 64.4634 43.9111C63.6167 44.355 62.708 44.8535 61.9205 45.3941C61.6195 45.5309 61.3844 45.5512 61.059 45.552C58.1057 45.559 55.1465 45.5461 52.1932 45.5455L34.0984 45.5469L25.0189 45.542C24.2496 45.5405 21.9465 45.6166 21.3112 45.5285L21.2389 45.4805C21.3241 45.2223 21.3442 45.2861 21.2824 45.0535C21.0982 45.106 20.9126 45.3823 20.7667 45.5514C15.2787 45.6069 9.77872 45.4956 4.28847 45.5582C3.67881 45.5652 1.22402 45.6285 0.84277 45.5066C1.43816 45.206 2.38309 44.5893 2.83023 44.1081C2.50458 44.2655 0.876266 45.1907 0.737843 45.481C0.55742 45.5517 0.345276 45.6122 0.16478 45.5246C-0.108073 45.1949 0.0407754 44.5199 0.0384831 44.1102C0.032124 42.9739 0.0348608 41.8371 0.0347869 40.7009L0.0335999 29.7102L0.0302015 22.7669C0.0290184 21.5025 -0.0211156 19.8886 0.0725711 18.6637C1.18106 17.957 2.82025 17.0908 3.9975 16.4247L11.068 12.4132L32.9516 0ZM28.1261 31.6507C27.3514 31.0598 26.7009 30.4195 25.9665 29.8191C24.9729 30.8746 23.8069 31.8873 22.8528 32.9245C23.7942 32.6141 24.7792 32.2228 25.7108 31.8698C25.6713 33.4825 25.4392 35.5299 25.4608 37.0419L30.4825 31.98C31.3788 31.0732 32.6092 29.7485 33.5217 28.9299C34.1524 28.2996 34.7794 27.6652 35.4013 27.0266C35.4324 27.2583 31.9992 32.2097 31.6428 33.0443C32.3933 32.9866 33.146 32.9593 33.898 32.9622C33.3856 34.1183 32.8532 35.2658 32.3016 36.4042C32.1803 36.6568 31.8091 37.4691 31.6827 37.6809C31.5023 37.985 30.7007 38.4423 30.4808 38.8855L30.5282 38.9988C30.7827 38.9859 31.1225 38.63 31.3041 38.4471C31.0754 38.9515 30.7509 39.6141 30.5638 40.1211C33.0403 37.5545 35.6091 34.6932 38.0618 32.0682C38.2422 28.56 37.9886 24.8696 38.0936 21.346C38.0973 21.2266 38.0655 21.0991 37.9879 21.0083L31.7914 27.7373C30.674 28.9434 29.281 30.5173 28.1261 31.6507ZM54.8973 37.8004L55.6072 36.0716L57.2258 40.6591C57.2302 39.7479 57.3278 33.8224 57.1637 33.3807C55.7817 34.5854 54.0913 35.6803 52.767 36.8376L54.0906 36.8205C54.0632 37.9685 53.8525 39.1716 53.8458 40.2628C54.2141 39.5695 54.6001 38.5507 54.8973 37.8004ZM17.7882 41.8833C17.7025 41.9447 17.4411 42.1262 17.4132 42.2154C17.258 42.71 16.7943 42.9297 16.6605 43.4478L16.7191 43.549L16.7717 43.542C17.23 43.271 18.3083 42.6252 18.1007 41.9888C17.9743 41.9245 17.9263 41.8854 17.7882 41.8833ZM48.5308 33.4425C48.9485 33.1554 50.179 32.5046 49.9697 31.9626C49.8336 31.8875 49.7619 31.8294 49.6081 31.8335C49.2184 32.2162 48.6077 32.9438 48.3363 33.417L48.3577 33.4967L48.5308 33.4425ZM57.9726 39.3594C58.5523 39.1003 60.0327 37.9277 60.1991 37.3835L60.1384 37.3122C59.711 37.6747 58.1597 38.9629 57.8979 39.2877L57.9726 39.3594ZM13.4119 35.6311C13.2868 36.8322 13.1049 38.0704 12.9377 39.2673C13.7862 37.6919 14.904 35.8279 15.5326 34.2041C15.594 34.0452 15.598 30.1027 15.538 29.8866L12.3837 33.0177C11.8795 33.519 11.1152 34.2257 10.6677 34.7416C11.6641 34.2866 12.741 33.8176 13.7179 33.3362C13.6253 33.9564 13.5316 35.0993 13.4119 35.6311ZM17.521 39.6245C17.8397 39.4623 18.1101 39.3487 18.3612 39.0943L18.4028 38.9581C18.3198 38.8614 18.339 38.8526 18.236 38.8203C18.0234 39.0018 17.5576 39.3691 17.4333 39.5802L17.521 39.6245Z" fill="white"/>
<path d="M141.234 28.6991H145.486V45.7782H141.234V28.6991ZM147.877 40.2384C147.877 39.4262 147.869 38.8899 147.854 38.6293C147.823 38.2003 147.785 37.9168 147.739 37.7788C147.677 37.6256 147.57 37.5336 147.417 37.503C147.264 37.457 147.019 37.434 146.681 37.434H146.452V34.6296C147.064 34.1393 147.846 33.8941 148.796 33.8941C150.175 33.8941 151.102 34.3155 151.578 35.1583C151.792 35.5261 151.938 35.9782 152.014 36.5146C152.091 37.0356 152.129 37.6792 152.129 38.4454V45.7782H147.877V40.2384Z" fill="white"/>
<path d="M127.989 28.6991H132.242V45.7782H127.989V28.6991ZM133.207 42.4222V37.549L135.207 34.055H139.69L136.241 39.6178L139.758 45.7782H135.115L133.207 42.4222Z" fill="white"/>
<path d="M121.171 38.5144C121.171 38.1159 121.156 37.8324 121.125 37.6638C121.094 37.4953 121.002 37.3727 120.849 37.2961C120.711 37.2194 120.451 37.1658 120.068 37.1351C119.838 37.1198 119.34 37.1122 118.573 37.1122C117.838 37.1122 117.156 37.1428 116.528 37.2041L115.309 37.2731V34.2848C116.75 34.009 118.305 33.871 119.976 33.871C121.263 33.871 122.267 33.963 122.987 34.1469C123.722 34.3308 124.274 34.6219 124.642 35.0204C124.964 35.3882 125.171 35.8556 125.263 36.4226C125.37 36.9896 125.423 37.7788 125.423 38.7902V45.7782H121.171V38.5144ZM117.769 45.9391C116.711 45.9391 115.93 45.6479 115.424 45.0656C114.919 44.4679 114.666 43.5714 114.666 42.3761C114.666 41.6406 114.719 41.0506 114.827 40.6062C114.934 40.1464 115.118 39.7863 115.378 39.5258C115.639 39.2499 115.999 39.0584 116.459 38.9511C116.918 38.8285 117.524 38.7672 118.275 38.7672L120.205 38.8132V40.859H119.976C119.623 40.859 119.393 40.8667 119.286 40.882C118.979 40.8973 118.819 41.0429 118.803 41.3187C118.788 41.4107 118.78 41.6022 118.78 41.8934C118.78 42.1233 118.788 42.2995 118.803 42.4221C118.834 42.5447 118.88 42.6443 118.941 42.7209C119.018 42.8282 119.133 42.8895 119.286 42.9048C119.501 42.9355 119.73 42.9508 119.976 42.9508H120.205V45.2954C119.868 45.556 119.508 45.7245 119.125 45.8012C118.757 45.8931 118.305 45.9391 117.769 45.9391Z" fill="white"/>
<path d="M108.296 28.6991H112.548V45.7782H108.296V28.6991ZM104.985 45.9391C104.373 45.9391 103.844 45.8395 103.399 45.6403C102.97 45.4411 102.626 45.1193 102.365 44.6749C102.074 44.2151 101.859 43.6021 101.721 42.8359C101.599 42.0697 101.537 41.1119 101.537 39.9626C101.537 37.7099 101.813 36.1314 102.365 35.2273C102.886 34.3385 103.76 33.8941 104.985 33.8941C105.537 33.8941 105.989 33.94 106.342 34.032C106.694 34.1086 107.024 34.2695 107.33 34.5147V37.434H107.077C106.74 37.434 106.495 37.457 106.342 37.503C106.204 37.5336 106.097 37.6179 106.02 37.7558C105.943 37.9244 105.897 38.1696 105.882 38.4914C105.867 38.7213 105.859 39.1963 105.859 39.9166C105.859 40.6369 105.867 41.1119 105.882 41.3418C105.897 41.6636 105.943 41.9088 106.02 42.0774C106.097 42.2306 106.219 42.3225 106.388 42.3532C106.602 42.3838 106.832 42.3992 107.077 42.3992H107.33V45.3185C107.024 45.5484 106.679 45.7093 106.296 45.8012C105.928 45.8932 105.491 45.9391 104.985 45.9391Z" fill="white"/>
<path d="M95.0638 38.5144C95.0638 38.1159 95.0485 37.8324 95.0179 37.6638C94.9872 37.4953 94.8953 37.3727 94.742 37.2961C94.6041 37.2194 94.3436 37.1658 93.9605 37.1351C93.7306 37.1198 93.2326 37.1122 92.4663 37.1122C91.7308 37.1122 91.0488 37.1428 90.4205 37.2041L89.2022 37.2731V34.2848C90.6427 34.009 92.1982 33.871 93.8685 33.871C95.1558 33.871 96.1595 33.963 96.8798 34.1469C97.6154 34.3308 98.1671 34.6219 98.5348 35.0204C98.8567 35.3882 99.0635 35.8556 99.1555 36.4226C99.2628 36.9896 99.3164 37.7788 99.3164 38.7902V45.7782H95.0638V38.5144ZM91.6618 45.9391C90.6044 45.9391 89.8229 45.6479 89.3172 45.0656C88.8114 44.4679 88.5586 43.5714 88.5586 42.3761C88.5586 41.6406 88.6122 41.0506 88.7195 40.6062C88.8268 40.1464 89.0107 39.7863 89.2712 39.5258C89.5317 39.2499 89.8918 39.0584 90.3516 38.9511C90.8113 38.8285 91.4166 38.7672 92.1675 38.7672L94.0984 38.8132V40.859H93.8685C93.5161 40.859 93.2862 40.8667 93.1789 40.882C92.8724 40.8973 92.7115 41.0429 92.6962 41.3187C92.6809 41.4107 92.6732 41.6022 92.6732 41.8934C92.6732 42.1233 92.6809 42.2995 92.6962 42.4221C92.7269 42.5447 92.7728 42.6443 92.8341 42.7209C92.9108 42.8282 93.0257 42.8895 93.1789 42.9048C93.3935 42.9355 93.6233 42.9508 93.8685 42.9508H94.0984V45.2954C93.7613 45.556 93.4011 45.7245 93.018 45.8012C92.6502 45.8931 92.1982 45.9391 91.6618 45.9391Z" fill="white"/>
<path d="M76.812 29.9633H81.4094V45.7782H76.812V29.9633ZM82.3748 42.0773H87.294V45.7782H82.3748V42.0773Z" fill="white"/>
<path d="M181.769 3.37636H186.022V20.4555H181.769V3.37636ZM178.459 20.6164C177.846 20.6164 177.318 20.5168 176.873 20.3176C176.444 20.1184 176.099 19.7966 175.839 19.3521C175.548 18.8924 175.333 18.2794 175.195 17.5132C175.073 16.747 175.011 15.7892 175.011 14.6399C175.011 12.3872 175.287 10.8087 175.839 9.90459C176.36 9.01577 177.233 8.57136 178.459 8.57136C179.011 8.57136 179.463 8.61734 179.815 8.70928C180.168 8.78591 180.497 8.94681 180.804 9.19201V12.1113H180.551C180.214 12.1113 179.969 12.1343 179.815 12.1803C179.678 12.2109 179.57 12.2952 179.494 12.4331C179.417 12.6017 179.371 12.8469 179.356 13.1687C179.34 13.3986 179.333 13.8736 179.333 14.5939C179.333 15.3141 179.34 15.7892 179.356 16.0191C179.371 16.3409 179.417 16.5861 179.494 16.7546C179.57 16.9079 179.693 16.9998 179.861 17.0305C180.076 17.0611 180.306 17.0765 180.551 17.0765H180.804V19.9958C180.497 20.2256 180.153 20.3866 179.769 20.4785C179.402 20.5704 178.965 20.6164 178.459 20.6164Z" fill="white"/>
<path d="M167.411 13.4445H169.02C169.02 12.5864 168.936 12.0347 168.767 11.7895C168.675 11.6516 168.553 11.5673 168.399 11.5366C168.246 11.4907 168.024 11.4677 167.733 11.4677H167.411V8.54836H167.733C169.051 8.54836 170.062 8.65563 170.767 8.87017C171.487 9.08471 172.016 9.43718 172.353 9.92756C172.66 10.3566 172.843 10.9083 172.905 11.5826C172.981 12.2569 173.02 13.2683 173.02 14.6169V15.5363H167.411V13.4445ZM168.192 20.6394C166.783 20.6394 165.672 20.5245 164.859 20.2946C164.063 20.0494 163.465 19.6663 163.066 19.1452C162.714 18.6855 162.484 18.1185 162.377 17.4442C162.27 16.7546 162.216 15.8122 162.216 14.6169C162.216 13.5135 162.254 12.64 162.331 11.9964C162.408 11.3374 162.568 10.7781 162.814 10.3183C163.089 9.81263 163.511 9.42185 164.078 9.14601C164.66 8.85485 165.449 8.67095 166.446 8.59433V15.5363C166.446 16.0574 166.468 16.4328 166.514 16.6627C166.56 16.8772 166.668 17.0381 166.836 17.1454C167.02 17.268 167.304 17.337 167.687 17.3523C168.177 17.3829 168.698 17.3983 169.25 17.3983C170.231 17.3983 170.943 17.3753 171.388 17.3293L172.56 17.2373V20.2026C171.947 20.3865 171.104 20.5091 170.031 20.5704C169.51 20.6164 168.897 20.6394 168.192 20.6394Z" fill="white"/>
<path d="M151.967 8.73228H154.128V5.33025H158.38V8.73228H160.955V11.9734H151.967V8.73228ZM154.128 12.8929H158.38V20.4555H154.128V12.8929Z" fill="white"/>
<path d="M148.316 9.39886C148.638 9.09237 149.014 8.87783 149.443 8.75524C149.887 8.61732 150.431 8.54836 151.075 8.54836V12.3871C150.385 12.3871 149.818 12.4331 149.374 12.5251C148.945 12.617 148.592 12.7779 148.316 13.0078V9.39886ZM143.098 8.73225H147.351V20.4555H143.098V8.73225Z" fill="white"/>
<path d="M136.28 13.1917C136.28 12.7932 136.265 12.5097 136.234 12.3412C136.203 12.1726 136.111 12.05 135.958 11.9734C135.82 11.8968 135.56 11.8431 135.177 11.8125C134.947 11.7971 134.449 11.7895 133.683 11.7895C132.947 11.7895 132.265 11.8201 131.637 11.8814L130.418 11.9504V8.96212C131.859 8.68628 133.414 8.54836 135.085 8.54836C136.372 8.54836 137.376 8.6403 138.096 8.8242C138.832 9.00809 139.383 9.29926 139.751 9.69769C140.073 10.0655 140.28 10.5329 140.372 11.0999C140.479 11.6669 140.533 12.4561 140.533 13.4675V20.4555H136.28V13.1917ZM132.878 20.6164C131.821 20.6164 131.039 20.3252 130.533 19.7429C130.028 19.1452 129.775 18.2488 129.775 17.0535C129.775 16.3179 129.828 15.7279 129.936 15.2835C130.043 14.8237 130.227 14.4636 130.487 14.2031C130.748 13.9273 131.108 13.7357 131.568 13.6284C132.027 13.5058 132.633 13.4445 133.384 13.4445L135.315 13.4905V15.5363H135.085C134.732 15.5363 134.502 15.544 134.395 15.5593C134.089 15.5746 133.928 15.7202 133.912 15.9961C133.897 16.088 133.889 16.2796 133.889 16.5707C133.889 16.8006 133.897 16.9768 133.912 17.0994C133.943 17.222 133.989 17.3216 134.05 17.3983C134.127 17.5055 134.242 17.5668 134.395 17.5821C134.61 17.6128 134.84 17.6281 135.085 17.6281H135.315V19.9728C134.977 20.2333 134.617 20.4019 134.234 20.4785C133.866 20.5704 133.414 20.6164 132.878 20.6164Z" fill="white"/>
<path d="M116.767 3.37636H121.02V20.4555H116.767V3.37636ZM123.41 14.9157C123.41 14.1035 123.402 13.5671 123.387 13.3066C123.356 12.8775 123.318 12.594 123.272 12.4561C123.211 12.3029 123.104 12.2109 122.95 12.1803C122.797 12.1343 122.552 12.1113 122.215 12.1113H121.985V9.30694C122.598 8.81655 123.379 8.57136 124.33 8.57136C125.709 8.57136 126.636 8.99279 127.111 9.83563C127.326 10.2034 127.471 10.6555 127.548 11.1919C127.624 11.7129 127.663 12.3565 127.663 13.1227V20.4555H123.41V14.9157Z" fill="white"/>
<path d="M113.69 11.8814C113.307 11.8201 112.755 11.7895 112.035 11.7895C111.56 11.7895 111.223 11.8201 111.024 11.8814V8.54836C112.112 8.56368 113.238 8.7016 114.403 8.96212V11.9504L113.69 11.8814ZM110.863 20.6394C109.668 20.6394 108.717 20.4938 108.013 20.2026C107.308 19.9115 106.787 19.4824 106.449 18.9154C106.143 18.425 105.944 17.8503 105.852 17.1914C105.775 16.5324 105.737 15.6742 105.737 14.6169C105.737 13.6514 105.775 12.8469 105.852 12.2032C105.928 11.5596 106.089 10.9926 106.334 10.5022C106.626 9.93522 107.062 9.49847 107.645 9.19198C108.242 8.87017 109.047 8.67095 110.058 8.59433V14.5939C110.058 15.2681 110.074 15.7739 110.104 16.111C110.15 16.4481 110.235 16.7087 110.357 16.8925C110.495 17.0764 110.687 17.2067 110.932 17.2833C111.192 17.3599 111.56 17.3983 112.035 17.3983C112.847 17.3983 113.407 17.3753 113.713 17.3293L114.495 17.2373V20.2256C113.361 20.5015 112.15 20.6394 110.863 20.6394Z" fill="white"/>
<path d="M99.2112 14.9157C99.2112 14.1035 99.2035 13.5671 99.1882 13.3066C99.1575 12.8775 99.1192 12.594 99.0732 12.4561C99.0119 12.3029 98.9047 12.2109 98.7514 12.1803C98.5982 12.1343 98.353 12.1113 98.0159 12.1113H97.786V9.23797C98.3836 8.79356 99.1652 8.57135 100.131 8.57135C101.51 8.57135 102.437 8.99277 102.912 9.83562C103.127 10.2034 103.272 10.6555 103.349 11.1918C103.425 11.7129 103.464 12.3565 103.464 13.1227V20.4555H99.2112V14.9157ZM92.568 8.73226H96.8205V20.4555H92.568V8.73226Z" fill="white"/>
<path d="M83.3173 20.6394C81.7082 20.6394 80.4669 20.5091 79.5934 20.2486C78.7199 19.9881 78.0763 19.5667 77.6625 18.9843C77.2794 18.448 77.0419 17.766 76.9499 16.9385C76.858 16.111 76.812 14.8774 76.812 13.2377V4.64061H81.4094V14.1571C81.4094 14.7241 81.4247 15.2681 81.4553 15.7892C81.486 16.2029 81.5549 16.5018 81.6622 16.6857C81.7695 16.8696 81.9534 16.9845 82.2139 17.0305C82.4438 17.0918 82.8116 17.1224 83.3173 17.1224H83.846C83.9686 17.1224 84.1065 17.1071 84.2597 17.0764V20.6164C84.1524 20.6317 83.9992 20.6394 83.8 20.6394H83.3173ZM85.2252 4.64061H89.8225V13.2377C89.8225 14.7395 89.7919 15.8735 89.7306 16.6397C89.6693 17.4059 89.5007 18.0495 89.2249 18.5706C88.9184 19.1682 88.451 19.628 87.8227 19.9498C87.1944 20.2716 86.3285 20.4785 85.2252 20.5704V4.64061Z" fill="white"/>
</svg>
