<svg width="253" height="72" viewBox="0 0 253 72" fill="none" xmlns="http://www.w3.org/2000/svg">
<path d="M76.668 29.7048V41.144C76.6686 41.3584 76.6268 41.5708 76.5452 41.7691C76.4635 41.9673 76.3435 42.1475 76.1921 42.2993C76.0407 42.4511 75.8608 42.5716 75.6628 42.6537C75.4648 42.7359 75.2525 42.7782 75.0381 42.7782H61.5816C61.3429 42.7774 61.1072 42.7244 60.8911 42.623C60.675 42.5215 60.4836 42.3741 60.3305 42.1909L51.6361 31.8028C51.4925 31.6319 51.2998 31.5092 51.0841 31.4513C50.8685 31.3935 50.6403 31.4034 50.4304 31.4795C50.2205 31.5557 50.0391 31.6945 49.9107 31.8771C49.7823 32.0598 49.7131 32.2775 49.7125 32.5007V41.144C49.7125 41.5774 49.5404 41.9931 49.2339 42.2996C48.9274 42.606 48.5118 42.7782 48.0783 42.7782H34.6261C34.3873 42.7777 34.1516 42.7248 33.9354 42.6234C33.7192 42.5219 33.5279 42.3743 33.375 42.1909L0.380673 2.76203C0.181804 2.52473 0.0546392 2.23569 0.0140603 1.92874C-0.0265185 1.6218 0.0211674 1.30964 0.151537 1.02881C0.281907 0.747981 0.489568 0.510091 0.750216 0.342983C1.01086 0.175876 1.31372 0.0864633 1.62333 0.0852104L16.4842 9.68153e-05C16.7272 -0.00254134 16.9677 0.0487666 17.1885 0.150322C17.4093 0.251878 17.6048 0.401151 17.7609 0.587381L40.1755 27.4833C40.3255 27.6681 40.514 27.818 40.7279 27.9224C40.9418 28.0267 41.176 28.0831 41.414 28.0876H46.1846C46.3929 28.0904 46.5977 28.0334 46.7747 27.9233C46.9516 27.8133 47.0933 27.6548 47.1829 27.4666C47.2725 27.2785 47.3062 27.0686 47.2801 26.8619C47.254 26.6551 47.1692 26.4602 47.0357 26.3002L27.3404 2.76203C27.1415 2.52473 27.0144 2.23569 26.9738 1.92874C26.9332 1.6218 26.9809 1.30964 27.1113 1.02881C27.2416 0.747981 27.4493 0.510091 27.71 0.342983C27.9706 0.175876 28.2735 0.0864633 28.5831 0.0852104L43.4397 9.68153e-05C43.6827 -0.00254134 43.9232 0.0487666 44.144 0.150322C44.3648 0.251878 44.5602 0.401151 44.7164 0.587381L67.131 27.4833C67.2818 27.6682 67.4711 27.8181 67.6857 27.9225C67.9003 28.0268 68.1351 28.0832 68.3737 28.0876H75.0381C75.4685 28.0865 75.8818 28.2561 76.1874 28.5592C76.4929 28.8624 76.6658 29.2743 76.668 29.7048Z" fill="#FFBA34"/>
<path d="M74.8979 14.2353H64.6417C64.4057 14.2329 64.1731 14.1791 63.9599 14.0777C63.7468 13.9763 63.5583 13.8297 63.4076 13.648L54.2579 2.6769C54.0583 2.43876 53.931 2.14854 53.8908 1.84044C53.8507 1.53234 53.8995 1.21919 54.0314 0.937891C54.1634 0.65659 54.3729 0.418857 54.6355 0.252703C54.898 0.0865491 55.2026 -0.0011035 55.5133 7.27193e-05H74.8979C75.3313 7.27193e-05 75.747 0.172245 76.0535 0.478713C76.3599 0.785182 76.5321 1.20084 76.5321 1.63425V12.6054C76.5321 12.8198 76.4898 13.0321 76.4076 13.2301C76.3255 13.4282 76.205 13.608 76.0532 13.7594C75.9014 13.9108 75.7212 14.0308 75.523 14.1125C75.3247 14.1941 75.1123 14.2359 74.8979 14.2353Z" fill="#FFBA34"/>
<path d="M127.198 15.4272V11.2695H138.976V7.71603H127.198V3.56794H139.777V0H126.683C123.532 0 122 1.1458 122 3.50509V15.5191C122 17.8639 123.532 19 126.683 19H140V15.4272H127.198Z" fill="#4CAF50"/>
<path d="M116.028 0C117.448 0 118.416 1.43783 117.881 2.75301L111.785 17.753C111.479 18.5069 110.746 19 109.932 19H107.342C106.527 19 105.793 18.5048 105.488 17.7486L100.629 5.71061C100.41 5.15645 100.274 4.55134 100.219 3.89533C100.217 3.87294 100.199 3.85563 100.176 3.85563V3.85563C100.154 3.85563 100.136 3.87228 100.133 3.89417C100.066 4.50777 99.9097 5.10439 99.6659 5.6841L94.7878 17.7496C94.4823 18.5053 93.7488 19 92.9336 19H90.2148C89.4061 19 88.6771 18.5131 88.3673 17.7661L82.1471 2.76611C81.6009 1.44915 82.5688 0 83.9945 0H84.7321C85.5708 0 86.3204 0.523296 86.6095 1.3106L91.2368 13.9121C91.4409 14.4799 91.5705 15.0728 91.6255 15.6908C91.628 15.7189 91.6515 15.7406 91.6797 15.7406V15.7406C91.7072 15.7406 91.7304 15.72 91.734 15.6927C91.7934 15.2473 91.9748 14.6537 92.2782 13.9121L97.5428 1.23305C97.8528 0.486542 98.5816 0 99.3899 0H101.491C102.32 0 103.064 0.512269 103.36 1.28753L108.213 14.0181C108.393 14.4858 108.529 15.0385 108.62 15.6761C108.623 15.6979 108.642 15.7141 108.664 15.7141V15.7141C108.687 15.7141 108.706 15.6967 108.708 15.674C108.753 15.2373 108.902 14.6677 109.156 13.9652L113.691 1.32461C113.976 0.530032 114.73 0 115.574 0H116.028Z" fill="#4CAF50"/>
<path d="M142 19V0H151.372C154.228 0 156.487 0.401908 158.148 1.20572C159.824 2.00953 160.661 3.05627 160.661 4.34587C160.661 5.42354 160.188 6.35982 159.24 7.15483C158.293 7.94978 156.981 8.5151 155.306 8.85078V8.90375C157.338 9.0539 158.958 9.53974 160.167 10.3613C161.389 11.1738 162 12.2338 162 13.5412C162 15.1665 161.004 16.4826 159.013 17.4895C157.022 18.4965 154.509 19 151.475 19H142ZM146.882 2.53069V7.93655H150.054C151.756 7.93655 153.088 7.6804 154.049 7.16806C155.024 6.64689 155.512 5.91378 155.512 4.96863C155.512 3.34334 153.823 2.53069 150.445 2.53069H146.882ZM146.882 10.4672V16.4826H151.063C152.889 16.4826 154.297 16.2131 155.285 15.6743C156.288 15.1267 156.789 14.3759 156.789 13.4219C156.789 11.4521 154.667 10.4672 150.424 10.4672H146.882Z" fill="#4CAF50"/>
<path d="M182.149 0.367261V14.1001L172.296 1.39467C171.554 0.464889 170.345 0 168.699 0C166.861 0 165 0.971618 165 2.82652V18.642H169.879V4.82089L179.743 17.6053C180.474 18.5351 181.7 19 183.386 19C185.184 19 187 18.0377 187 16.2107V0.404453L182.149 0.367261Z" fill="#4CAF50"/>
<path d="M194.909 15.4272V11.2695H206.033V7.71603H194.909V3.56794H206.789V0H194.423C191.447 0 190 1.1458 190 3.50509V15.5191C190 17.8639 191.447 19 194.423 19H207V15.4272H194.909Z" fill="#4CAF50"/>
<path d="M210.02 17.9616V14.8205C210.45 15.0769 210.96 15.3077 211.548 15.5128C212.148 15.7179 212.781 15.8932 213.447 16.0384C214.113 16.1752 214.779 16.2821 215.445 16.359C216.111 16.4359 216.725 16.4744 217.286 16.4744C219.245 16.4744 220.701 16.2607 221.654 15.8333C222.621 15.406 223.104 14.7863 223.104 13.9744C223.104 13.5384 222.94 13.1624 222.614 12.8462C222.301 12.5214 221.857 12.2265 221.282 11.9615C220.708 11.6966 220.028 11.4444 219.245 11.2051C218.475 10.9573 217.646 10.7008 216.757 10.4359C215.804 10.1026 214.916 9.76497 214.094 9.42309C213.271 9.08121 212.553 8.70514 211.939 8.29488C211.339 7.87609 210.862 7.40599 210.51 6.88464C210.17 6.36323 210 5.75217 210 5.05128C210 4.18805 210.294 3.44018 210.882 2.80767C211.483 2.16669 212.266 1.64103 213.232 1.23077C214.211 0.811969 215.321 0.504276 216.562 0.307692C217.802 0.102564 219.069 0 220.362 0C223.299 0 225.441 0.21795 226.786 0.65385V3.66664C225.193 2.91451 223.143 2.53849 220.636 2.53849C219.944 2.53849 219.251 2.58121 218.559 2.66666C217.881 2.75215 217.266 2.89317 216.718 3.08977C216.183 3.28631 215.745 3.53848 215.406 3.84617C215.067 4.15386 214.897 4.52566 214.897 4.96152C214.897 5.37178 215.028 5.72651 215.288 6.02567C215.55 6.32477 215.928 6.59828 216.425 6.84618C216.934 7.09403 217.547 7.33762 218.266 7.57693C218.997 7.80772 219.839 8.05983 220.792 8.33334C221.772 8.66668 222.693 9.0171 223.554 9.38463C224.429 9.75211 225.193 10.1581 225.846 10.6025C226.512 11.047 227.034 11.5427 227.413 12.0898C227.804 12.6282 228 13.2436 228 13.9359C228 14.8675 227.713 15.6538 227.138 16.2949C226.563 16.9359 225.787 17.4573 224.808 17.859C223.842 18.2607 222.725 18.5513 221.458 18.7308C220.191 18.9102 218.853 19 217.443 19C216.973 19 216.392 18.9743 215.699 18.9231C215.021 18.8804 214.322 18.812 213.604 18.718C212.886 18.6325 212.207 18.5256 211.567 18.3974C210.928 18.2693 210.411 18.1239 210.02 17.9616Z" fill="#4CAF50"/>
<path d="M252 2.67643H243.457V19H238.522V2.67643H230V0H252V2.67643Z" fill="#4CAF50"/>
<path d="M113 40.9312C113 42.0737 112.074 43 110.931 43V43C109.789 43 108.862 42.0737 108.862 40.9312V30.7043C108.862 29.7071 108.943 28.4889 109.103 27.0498C109.106 27.0274 109.088 27.0077 109.066 27.0077V27.0077C109.049 27.0077 109.034 27.0186 109.029 27.0344C108.776 27.8508 108.55 28.4381 108.354 28.7964L101.523 41.7259C101.109 42.5096 100.295 43 99.409 43V43C98.5261 43 97.715 42.5135 97.2995 41.7345L90.4533 28.9024C90.2451 28.4917 90.0256 27.8692 89.7946 27.035C89.7901 27.0189 89.7755 27.0077 89.7588 27.0077V27.0077C89.7365 27.0077 89.7192 27.0268 89.7219 27.0489C89.812 27.8119 89.8571 29.0392 89.8571 30.7308V41.0714C89.8571 42.1366 88.9937 43 87.9286 43V43C86.8635 43 86 42.1365 86 41.0714V27.6575C86 25.6375 87.6375 24 89.6575 24V24C91.0195 24 92.2687 24.7568 92.8993 25.9641L98.4831 36.6534C98.9705 37.5957 99.293 38.3054 99.4507 38.7825C99.4593 38.8086 99.4836 38.8264 99.5111 38.8264V38.8264C99.5363 38.8264 99.5591 38.8112 99.5692 38.7881C99.9941 37.8093 100.339 37.08 100.605 36.6004L106.337 25.872C106.953 24.7196 108.153 24 109.46 24V24C111.415 24 113 25.5851 113 27.5405V40.9312Z" fill="#4CAF50"/>
<path d="M121.198 39.4272V35.2695H132.976V31.716H121.198V27.5679H133.777V24H120.683C117.532 24 116 25.1458 116 27.5051V39.5191C116 41.8639 117.532 43 120.683 43H134V39.4272H121.198Z" fill="#4CAF50"/>
<path d="M137 43V24H144.546C154.182 24 159 27.0872 159 33.2615C159 36.1941 157.663 38.5525 154.99 40.3368C152.317 42.1123 148.732 43 144.236 43H137ZM141.32 26.6764V40.3368H144.783C147.833 40.3368 150.202 39.7273 151.891 38.5084C153.592 37.2894 154.443 35.567 154.443 33.341C154.443 28.898 151.278 26.6764 144.947 26.6764H141.32Z" fill="#4CAF50"/>
<path d="M166 43H162V24H166V43Z" fill="#4CAF50"/>
<path d="M194.076 39.6007C194.935 41.1189 193.838 43 192.094 43V43C191.256 43 190.486 42.5399 190.089 41.8021L188.838 39.4788C188.402 38.6689 187.556 38.1639 186.637 38.1639H178.27C177.336 38.1639 176.479 38.6851 176.05 39.5151L174.876 41.7829C174.49 42.5305 173.718 43 172.876 43V43C171.148 43 170.064 41.1338 170.92 39.6327L179.117 25.2615C179.562 24.4815 180.39 24 181.288 24H183.787C184.688 24 185.519 24.4846 185.963 25.2685L194.076 39.6007ZM182.705 35.5934C184.59 35.5934 185.797 33.588 184.914 31.923L182.844 28.0147C182.841 28.0104 182.839 28.006 182.837 28.0017C182.695 27.7127 182.122 27.7276 181.976 28.0147V28.0147L179.921 31.9322C179.048 33.5968 180.255 35.5934 182.135 35.5934H182.705Z" fill="#4CAF50"/>
<path d="M42 70.7755V60H43.0433L50.5441 69.2415V60H51.5874V70.7755H50.5441L43.0433 61.519V70.7755H42ZM59.5443 71C58.6149 71 57.8115 70.8279 57.1339 70.4837C56.4564 70.1345 55.9317 69.6431 55.56 69.0095C55.1883 68.371 55.0024 67.6177 55.0024 66.7497C55.0024 65.8667 55.1853 65.1059 55.551 64.4673C55.9228 63.8238 56.4444 63.3299 57.1159 62.9857C57.7935 62.6415 58.5969 62.4694 59.5263 62.4694C60.4676 62.4694 61.2711 62.649 61.9366 63.0082C62.6082 63.3624 63.1178 63.8762 63.4656 64.5497C63.8193 65.2231 63.9872 66.0338 63.9692 66.9816H62.89V66.6823C62.86 65.5748 62.5602 64.7317 61.9906 64.1531C61.421 63.5744 60.6055 63.285 59.5443 63.285C58.447 63.285 57.5986 63.5868 56.999 64.1905C56.4054 64.7891 56.1086 65.6372 56.1086 66.7347C56.1086 67.8222 56.4054 68.6653 56.999 69.2639C57.5986 69.8626 58.441 70.1619 59.5263 70.1619C60.2758 70.1619 60.9293 70.0172 61.4869 69.7279C62.0505 69.4336 62.4972 69.0145 62.827 68.4707L63.7624 68.815C63.3726 69.5134 62.809 70.0522 62.0715 70.4313C61.334 70.8104 60.4916 71 59.5443 71ZM55.7129 66.9816V66.2034H63.3846V66.9816H55.7129ZM70.9863 70.985C69.8651 70.985 68.9387 70.788 68.2072 70.3939C67.4817 69.9998 67.032 69.451 66.8582 68.7476L67.9194 68.598C68.0693 69.0769 68.4231 69.4585 68.9807 69.7429C69.5383 70.0272 70.2218 70.1694 71.0313 70.1694C71.8347 70.1694 72.4733 70.0272 72.947 69.7429C73.4207 69.4585 73.6575 69.0694 73.6575 68.5755C73.6575 68.3061 73.5825 68.0866 73.4326 67.917C73.2887 67.7424 73.0009 67.5828 72.5692 67.4381C72.1375 67.2934 71.496 67.1238 70.6446 66.9293C69.7452 66.7297 69.0407 66.5302 68.531 66.3306C68.0274 66.1311 67.6706 65.9041 67.4607 65.6497C67.2569 65.3952 67.1549 65.0834 67.1549 64.7143C67.1549 64.2703 67.3078 63.8812 67.6136 63.5469C67.9194 63.2077 68.3451 62.9433 68.8908 62.7537C69.4424 62.5642 70.0779 62.4694 70.7975 62.4694C71.517 62.4694 72.1645 62.5692 72.7401 62.7687C73.3157 62.9633 73.7804 63.2376 74.1342 63.5918C74.4879 63.941 74.6918 64.3476 74.7457 64.8116L73.6845 64.9762C73.5825 64.4574 73.2678 64.0483 72.7401 63.749C72.2125 63.4447 71.5529 63.29 70.7615 63.285C70.012 63.2751 69.4004 63.3998 68.9267 63.6592C68.4531 63.9136 68.2162 64.2503 68.2162 64.6694C68.2162 64.9088 68.2972 65.1134 68.4591 65.283C68.6269 65.4476 68.9207 65.5998 69.3405 65.7395C69.7602 65.8791 70.3538 66.0288 71.1212 66.1884C72.0566 66.388 72.7851 66.5925 73.3067 66.802C73.8344 67.0116 74.2061 67.2585 74.422 67.5429C74.6378 67.8222 74.7457 68.1689 74.7457 68.583C74.7457 69.3313 74.41 69.92 73.7384 70.349C73.0729 70.773 72.1555 70.985 70.9863 70.985ZM83.3354 70.7755C82.8197 70.8703 82.3101 70.9052 81.8064 70.8803C81.3028 70.8603 80.8531 70.768 80.4573 70.6034C80.0676 70.4338 79.7738 70.1744 79.5759 69.8252C79.414 69.5408 79.3241 69.254 79.3061 68.9646C79.2881 68.6753 79.2791 68.3435 79.2791 67.9694V60.449H80.3224V67.9544C80.3224 68.2937 80.3254 68.5755 80.3314 68.8C80.3434 69.0195 80.4064 69.2215 80.5203 69.4061C80.7361 69.7503 81.0779 69.9599 81.5456 70.0347C82.0133 70.1045 82.6099 70.0921 83.3354 69.9973V70.7755ZM77.1026 63.4796V62.6939H83.3354V63.4796H77.1026ZM86.8456 70.7755V69.6905H88.1498V70.7755H86.8456ZM97.3598 70.7755V60H98.4031L105.904 69.2415V60H106.947V70.7755H105.904L98.4031 61.519V70.7755H97.3598ZM114.634 70.9626C114.101 70.9626 113.621 70.8977 113.195 70.768C112.776 70.6383 112.41 70.4562 112.098 70.2218C111.786 69.9823 111.528 69.7029 111.325 69.3837C111.121 69.0594 110.968 68.7052 110.866 68.3211C110.77 67.937 110.722 67.5354 110.722 67.1163V62.6939H111.765V66.8993C111.765 67.4082 111.825 67.8621 111.945 68.2612C112.071 68.6603 112.257 68.9995 112.503 69.2789C112.755 69.5583 113.066 69.7703 113.438 69.915C113.816 70.0596 114.26 70.132 114.769 70.132C115.297 70.132 115.753 70.0571 116.136 69.9075C116.526 69.7528 116.844 69.5383 117.09 69.2639C117.341 68.9896 117.527 68.6653 117.647 68.2912C117.773 67.912 117.836 67.5005 117.836 67.0565L118.655 67.1388C118.655 68.0118 118.475 68.7327 118.115 69.3014C117.761 69.8651 117.281 70.2841 116.676 70.5585C116.07 70.8279 115.39 70.9626 114.634 70.9626ZM117.935 70.7755V68.9571H117.836V62.6939H118.879V70.7755H117.935ZM122.828 70.7755V62.6939H123.772V64.632L123.538 64.3776C123.646 64.1481 123.781 63.9361 123.943 63.7415C124.111 63.542 124.282 63.3798 124.456 63.2551C124.714 63.0556 125.016 62.9059 125.364 62.8061C125.712 62.7014 126.063 62.6415 126.416 62.6265C126.77 62.6066 127.091 62.629 127.379 62.6939V63.5095C126.995 63.4347 126.587 63.4197 126.156 63.4646C125.724 63.5095 125.319 63.6642 124.941 63.9286C124.612 64.168 124.372 64.4474 124.222 64.7667C124.072 65.081 123.976 65.4127 123.934 65.7619C123.892 66.1061 123.871 66.4429 123.871 66.7721V70.7755H122.828ZM135.674 70.7755C135.158 70.8703 134.649 70.9052 134.145 70.8803C133.641 70.8603 133.192 70.768 132.796 70.6034C132.406 70.4338 132.112 70.1744 131.914 69.8252C131.753 69.5408 131.663 69.254 131.645 68.9646C131.627 68.6753 131.618 68.3435 131.618 67.9694V60.449H132.661V67.9544C132.661 68.2937 132.664 68.5755 132.67 68.8C132.682 69.0195 132.745 69.2215 132.859 69.4061C133.075 69.7503 133.416 69.9599 133.884 70.0347C134.352 70.1045 134.948 70.0921 135.674 69.9973V70.7755ZM129.441 63.4796V62.6939H135.674V63.4796H129.441ZM142.701 70.9626C142.167 70.9626 141.688 70.8977 141.262 70.768C140.842 70.6383 140.476 70.4562 140.164 70.2218C139.853 69.9823 139.595 69.7029 139.391 69.3837C139.187 69.0594 139.034 68.7052 138.932 68.3211C138.836 67.937 138.788 67.5354 138.788 67.1163V62.6939H139.832V66.8993C139.832 67.4082 139.892 67.8621 140.012 68.2612C140.137 68.6603 140.323 68.9995 140.569 69.2789C140.821 69.5583 141.133 69.7703 141.505 69.915C141.883 70.0596 142.326 70.132 142.836 70.132C143.363 70.132 143.819 70.0571 144.203 69.9075C144.593 69.7528 144.91 69.5383 145.156 69.2639C145.408 68.9896 145.594 68.6653 145.714 68.2912C145.84 67.912 145.903 67.5005 145.903 67.0565L146.721 67.1388C146.721 68.0118 146.541 68.7327 146.182 69.3014C145.828 69.8651 145.348 70.2841 144.743 70.5585C144.137 70.8279 143.456 70.9626 142.701 70.9626ZM146.002 70.7755V68.9571H145.903V62.6939H146.946V70.7755H146.002ZM150.894 70.7755V62.6939H151.839V64.632L151.605 64.3776C151.713 64.1481 151.848 63.9361 152.01 63.7415C152.177 63.542 152.348 63.3798 152.522 63.2551C152.78 63.0556 153.083 62.9059 153.431 62.8061C153.778 62.7014 154.129 62.6415 154.483 62.6265C154.837 62.6066 155.157 62.629 155.445 62.6939V63.5095C155.061 63.4347 154.654 63.4197 154.222 63.4646C153.79 63.5095 153.386 63.6642 153.008 63.9286C152.678 64.168 152.438 64.4474 152.288 64.7667C152.138 65.081 152.043 65.4127 152.001 65.7619C151.959 66.1061 151.938 66.4429 151.938 66.7721V70.7755H150.894ZM162.413 71C161.484 71 160.681 70.8279 160.003 70.4837C159.326 70.1345 158.801 69.6431 158.429 69.0095C158.057 68.371 157.872 67.6177 157.872 66.7497C157.872 65.8667 158.054 65.1059 158.42 64.4673C158.792 63.8238 159.314 63.3299 159.985 62.9857C160.663 62.6415 161.466 62.4694 162.395 62.4694C163.337 62.4694 164.14 62.649 164.806 63.0082C165.477 63.3624 165.987 63.8762 166.335 64.5497C166.688 65.2231 166.856 66.0338 166.838 66.9816H165.759V66.6823C165.729 65.5748 165.429 64.7317 164.86 64.1531C164.29 63.5744 163.475 63.285 162.413 63.285C161.316 63.285 160.468 63.5868 159.868 64.1905C159.275 64.7891 158.978 65.6372 158.978 66.7347C158.978 67.8222 159.275 68.6653 159.868 69.2639C160.468 69.8626 161.31 70.1619 162.395 70.1619C163.145 70.1619 163.798 70.0172 164.356 69.7279C164.92 69.4336 165.366 69.0145 165.696 68.4707L166.632 68.815C166.242 69.5134 165.678 70.0522 164.941 70.4313C164.203 70.8104 163.361 71 162.413 71ZM158.582 66.9816V66.2034H166.254V66.9816H158.582ZM170.131 70.7755V69.6905H171.435V70.7755H170.131ZM179.747 70.7755L184.333 60H185.62L190.206 70.7755H189.109L184.702 60.449H185.224L180.844 70.7755H179.747ZM181.644 68.0667V67.251H188.3V68.0667H181.644ZM196.845 70.985C195.724 70.985 194.797 70.788 194.066 70.3939C193.34 69.9998 192.891 69.451 192.717 68.7476L193.778 68.598C193.928 69.0769 194.282 69.4585 194.839 69.7429C195.397 70.0272 196.08 70.1694 196.89 70.1694C197.693 70.1694 198.332 70.0272 198.805 69.7429C199.279 69.4585 199.516 69.0694 199.516 68.5755C199.516 68.3061 199.441 68.0866 199.291 67.917C199.147 67.7424 198.859 67.5828 198.428 67.4381C197.996 67.2934 197.354 67.1238 196.503 66.9293C195.604 66.7297 194.899 66.5302 194.39 66.3306C193.886 66.1311 193.529 65.9041 193.319 65.6497C193.115 65.3952 193.013 65.0834 193.013 64.7143C193.013 64.2703 193.166 63.8812 193.472 63.5469C193.778 63.2077 194.204 62.9433 194.749 62.7537C195.301 62.5642 195.936 62.4694 196.656 62.4694C197.375 62.4694 198.023 62.5692 198.599 62.7687C199.174 62.9633 199.639 63.2376 199.993 63.5918C200.346 63.941 200.55 64.3476 200.604 64.8116L199.543 64.9762C199.441 64.4574 199.126 64.0483 198.599 63.749C198.071 63.4447 197.411 63.29 196.62 63.285C195.87 63.2751 195.259 63.3998 194.785 63.6592C194.312 63.9136 194.075 64.2503 194.075 64.6694C194.075 64.9088 194.156 65.1134 194.318 65.283C194.485 65.4476 194.779 65.5998 195.199 65.7395C195.619 65.8791 196.212 66.0288 196.98 66.1884C197.915 66.388 198.644 66.5925 199.165 66.802C199.693 67.0116 200.065 67.2585 200.28 67.5429C200.496 67.8222 200.604 68.1689 200.604 68.583C200.604 69.3313 200.268 69.92 199.597 70.349C198.931 70.773 198.014 70.985 196.845 70.985ZM208.007 71C207.036 71 206.217 70.8204 205.552 70.4612C204.886 70.0971 204.38 69.5957 204.032 68.9571C203.69 68.3136 203.513 67.5728 203.501 66.7347C203.513 65.8816 203.693 65.1358 204.041 64.4973C204.395 63.8537 204.904 63.3549 205.57 63.0007C206.235 62.6465 207.051 62.4694 208.016 62.4694C208.958 62.4694 209.785 62.659 210.498 63.0381C211.218 63.4122 211.716 63.9286 211.991 64.5871L210.984 64.8939C210.738 64.39 210.352 64.0009 209.824 63.7265C209.296 63.4472 208.691 63.3075 208.007 63.3075C207.24 63.3075 206.607 63.4546 206.109 63.749C205.612 64.0383 205.24 64.4399 204.994 64.9537C204.748 65.4676 204.619 66.0612 204.608 66.7347C204.625 67.7673 204.916 68.598 205.48 69.2265C206.05 69.8501 206.892 70.1619 208.007 70.1619C208.697 70.1619 209.293 70.0297 209.797 69.7653C210.307 69.5009 210.696 69.1168 210.966 68.6129L211.991 68.9048C211.614 69.5882 211.086 70.1095 210.409 70.4687C209.731 70.8229 208.931 71 208.007 71ZM219.056 71C218.126 71 217.323 70.8279 216.645 70.4837C215.968 70.1345 215.443 69.6431 215.071 69.0095C214.7 68.371 214.514 67.6177 214.514 66.7497C214.514 65.8667 214.697 65.1059 215.062 64.4673C215.434 63.8238 215.956 63.3299 216.627 62.9857C217.305 62.6415 218.108 62.4694 219.038 62.4694C219.979 62.4694 220.782 62.649 221.448 63.0082C222.119 63.3624 222.629 63.8762 222.977 64.5497C223.331 65.2231 223.499 66.0338 223.481 66.9816H222.401V66.6823C222.371 65.5748 222.072 64.7317 221.502 64.1531C220.932 63.5744 220.117 63.285 219.056 63.285C217.958 63.285 217.11 63.5868 216.51 64.1905C215.917 64.7891 215.62 65.6372 215.62 66.7347C215.62 67.8222 215.917 68.6653 216.51 69.2639C217.11 69.8626 217.952 70.1619 219.038 70.1619C219.787 70.1619 220.441 70.0172 220.998 69.7279C221.562 69.4336 222.009 69.0145 222.338 68.4707L223.274 68.815C222.884 69.5134 222.32 70.0522 221.583 70.4313C220.845 70.8104 220.003 71 219.056 71ZM215.224 66.9816V66.2034H222.896V66.9816H215.224ZM233.76 70.7755V66.5701C233.76 66.0612 233.697 65.6073 233.571 65.2082C233.451 64.8091 233.265 64.4698 233.013 64.1905C232.767 63.9111 232.455 63.6991 232.078 63.5544C231.706 63.4098 231.265 63.3374 230.756 63.3374C230.228 63.3374 229.769 63.4147 229.38 63.5694C228.996 63.719 228.678 63.9311 228.426 64.2054C228.18 64.4798 227.994 64.8066 227.869 65.1857C227.749 65.5599 227.689 65.9689 227.689 66.4129L226.87 66.3306C226.87 65.4576 227.047 64.7392 227.401 64.1755C227.761 63.6068 228.243 63.1878 228.849 62.9184C229.454 62.644 230.135 62.5068 230.89 62.5068C231.424 62.5068 231.901 62.5717 232.32 62.7014C232.746 62.8311 233.115 63.0156 233.427 63.2551C233.739 63.4896 233.996 63.7689 234.2 64.0932C234.404 64.4125 234.554 64.7642 234.65 65.1483C234.752 65.5324 234.803 65.934 234.803 66.3531V70.7755H233.76ZM226.645 70.7755V62.6939H227.59V64.5122H227.689V70.7755H226.645ZM242.269 71C241.351 71 240.575 70.8129 239.939 70.4388C239.31 70.0596 238.827 69.5483 238.491 68.9048C238.161 68.2562 237.997 67.5279 237.997 66.7197C237.997 65.9215 238.161 65.2007 238.491 64.5571C238.821 63.9136 239.295 63.4048 239.912 63.0306C240.536 62.6565 241.288 62.4694 242.17 62.4694C243.075 62.4694 243.84 62.654 244.463 63.0231C245.087 63.3923 245.557 63.8986 245.875 64.5422C246.193 65.1807 246.352 65.9066 246.352 66.7197C246.352 67.5279 246.193 68.2537 245.875 68.8973C245.557 69.5408 245.096 70.0522 244.49 70.4313C243.885 70.8104 243.144 71 242.269 71ZM242.332 70.1769C243.057 70.1769 243.66 70.0272 244.139 69.7279C244.625 69.4236 244.985 69.012 245.219 68.4932C245.458 67.9694 245.578 67.3782 245.578 66.7197C245.578 66.0562 245.458 65.4651 245.219 64.9463C244.979 64.4274 244.619 64.0234 244.139 63.734C243.66 63.4397 243.063 63.2925 242.35 63.2925C241.612 63.2925 241.004 63.4447 240.524 63.749C240.044 64.0483 239.687 64.4574 239.454 64.9762C239.22 65.49 239.103 66.0712 239.103 66.7197C239.103 67.3732 239.223 67.9619 239.463 68.4857C239.708 69.0045 240.068 69.4161 240.542 69.7204C241.022 70.0247 241.618 70.1769 242.332 70.1769ZM245.578 70.7755V64.5497H245.488V60H246.523V70.7755H245.578ZM250.696 70.7755V69.6905H252V70.7755H250.696Z" fill="#409338" stroke="#409338" stroke-width="0.6"/>
<line x1="38.9998" y1="53.6058" x2="251.999" y2="53.6058" stroke="#4CAF50" stroke-width="0.3"/>
</svg>
