<svg width="162" height="40" viewBox="0 0 162 40" fill="none" xmlns="http://www.w3.org/2000/svg">
<path d="M28.5844 2.2049C29.0562 2.34076 42.8832 10.47 42.9049 10.5027L42.8149 10.6951C42.8838 10.8811 43.0741 10.5661 43.4795 10.7749C44.0133 11.0499 44.501 11.3693 45.0086 11.6849C44.727 11.9754 44.6223 12.1071 44.3906 12.4403C44.796 12.2566 44.9812 12.1344 45.3546 11.8853C46.3015 12.364 47.7693 13.285 48.741 13.851L55.0802 17.5554C55.167 19.0563 55.093 21.3442 55.0904 22.891C55.1044 25.798 55.1006 28.7051 55.0802 31.6121C54.067 30.2276 52.8801 28.8937 51.8771 27.509C51.7462 25.002 51.9058 22.0343 51.8458 19.451L44.1633 14.9758C43.558 14.6225 41.4333 13.4536 40.9551 13.1038C40.8504 12.943 40.8459 12.9087 40.8587 12.7162L40.8619 12.668L40.8038 12.6462L40.6314 12.8001C40.5924 12.8085 40.5445 12.819 40.4877 12.8314C37.404 11.0746 34.2335 9.19815 31.1785 7.41923C30.4053 6.96918 29.0511 6.11674 28.6451 5.96935C26.1573 7.32748 23.427 9.00337 20.9565 10.4404L5.45605 19.4791C5.34905 22.7404 5.45127 26.502 5.4376 29.8275C4.46601 30.8902 3.26016 32.0493 2.23762 33.0734C2.22389 27.9858 2.16611 22.6738 2.24732 17.5962C2.73618 17.2504 3.89363 16.6192 4.44098 16.3009L8.68567 13.8309L22.6217 5.71563L26.4549 3.49238C27.0432 3.15078 28.0641 2.59846 28.5844 2.2049ZM13.707 12.9307C14.0218 12.7166 15.116 11.8171 15.2168 11.4886L15.1294 11.4464C14.7974 11.7069 13.6919 12.5506 13.6188 12.9056L13.707 12.9307ZM4.25921 29.4679C4.48165 29.2688 4.83254 28.8923 4.96221 28.62L4.90233 28.5365C4.57608 28.7425 4.35 28.9971 4.19907 29.3565C4.22576 29.4237 4.21586 29.4336 4.25921 29.4679Z" fill="black"/>
<path d="M15.3539 11.7594L15.4342 11.8012C15.3415 12.1265 14.3351 13.0173 14.0454 13.2294L13.9643 13.2045C14.0315 12.853 15.0484 12.0174 15.3539 11.7594Z" fill="black"/>
<path d="M51.324 16.1692L51.4373 16.1852L51.4475 16.274C51.2384 16.5905 50.361 17.3447 50.0474 17.6299L50.0081 17.6391L49.9775 17.5679C50.2734 17.1192 50.9242 16.4971 51.324 16.1692Z" fill="black"/>
<path d="M5.08705 28.6636L5.14472 28.7295C5.01984 28.9444 4.68191 29.2414 4.46768 29.3985C4.42593 29.3715 4.43546 29.3637 4.40976 29.3107C4.55512 29.027 4.77285 28.8261 5.08705 28.6636Z" fill="black"/>
<path d="M28.6915 0H29.3952C31.0518 0.949498 32.8385 1.89945 34.452 2.88226L33.5119 3.54159C32.1 2.74311 30.4028 1.84136 29.0437 1.00202C26.7287 2.3688 24.1871 3.74596 21.8316 5.07905L9.52031 12.0689L4.2007 15.0806C3.1956 15.6516 2.04235 16.2734 1.07614 16.8901C0.988773 19.9053 1.0623 23.2663 1.07904 26.3039C1.07524 27.185 1.04215 28.247 1.07338 29.1119C1.07067 30.4289 1.11909 32.1663 1.05445 33.4572C0.912286 33.5721 0.731303 33.688 0.679667 33.851C0.861874 33.8054 0.907649 33.7569 1.05399 33.6429C1.06629 34.4496 1.02669 35.8028 1.09378 36.5455L9.69305 28.004L12.2839 25.487C12.6923 25.0845 13.1001 24.6049 13.5151 24.2256C14.2962 24.7154 15.4456 25.6374 16.2244 26.2279C16.9159 26.7523 18.0439 27.557 18.6795 28.1087C19.8598 26.9385 21.5086 25.4076 22.5961 24.2228C22.8467 24.4049 22.9883 24.5087 23.2144 24.7261C23.1338 24.8432 23.0195 24.9848 22.9867 25.1165C23.3836 25.0942 23.2691 24.747 23.6335 25.0768C23.9124 25.3292 24.1958 25.5862 24.4766 25.8368C26.5776 23.6509 28.5988 21.3288 30.6868 19.1292C31.4175 18.3593 32.4161 17.1739 33.1417 16.4841C33.7102 17.0374 34.235 17.6451 34.7784 18.2231C38.5236 22.2107 42.1993 26.2894 45.9683 30.2536C47.2399 29.2495 48.704 28.0799 50.0155 27.148L54.7413 32.9733C55.2023 33.5464 56.5441 35.299 57.0018 35.7653L57.0005 22.0015L57.0051 18.7711C57.0057 18.3158 57.0366 17.317 56.9548 16.9216C56.5608 16.5849 55.4328 15.9789 54.9306 15.6931L51.2581 13.6069L39.7752 7.09301C37.995 6.08548 35.3495 4.69418 33.6755 3.61834C33.9736 3.41588 34.3283 3.18684 34.6116 2.97331C39.5827 5.68584 44.6543 8.67213 49.6035 11.47L55.2242 14.6526C55.924 15.0507 57.4223 15.8539 58.0326 16.2827C58.1144 23.0116 57.9946 29.7604 58.0474 36.4912C58.0558 37.5423 58.0526 38.6087 58.0371 39.6592C57.5562 39.6642 54.2443 39.7396 54.0015 39.6157C54.6125 39.1246 55.5274 38.7229 56.2402 38.3388C56.6387 38.1493 57.6714 37.7558 57.9341 37.4912L57.8775 37.4404C57.2832 37.498 56.6606 37.9339 56.1294 38.2342C55.3922 38.6207 54.601 39.0547 53.9153 39.5255C53.6532 39.6445 53.4485 39.6623 53.1652 39.663C50.5937 39.669 48.017 39.6578 45.4455 39.6573L29.6901 39.6585L21.7844 39.6542C21.1146 39.6529 19.1092 39.7192 18.556 39.6425L18.4931 39.6006C18.5672 39.3759 18.5848 39.4314 18.5309 39.2289C18.3705 39.2746 18.2089 39.5152 18.0819 39.6624C13.3035 39.7107 8.5145 39.6138 3.73405 39.6684C3.2032 39.6744 1.06578 39.7295 0.733815 39.6234C1.25224 39.3616 2.075 38.8247 2.46433 38.4057C2.18078 38.5427 0.76298 39.3483 0.642453 39.6011C0.485356 39.6627 0.300638 39.7154 0.143476 39.6391C-0.0941008 39.352 0.0355039 38.7643 0.033508 38.4076C0.0279709 37.4182 0.0303539 36.4283 0.0302895 35.439L0.029256 25.8692L0.026297 19.8235C0.0252668 18.7226 -0.0183857 17.3174 0.0631889 16.2508C1.02837 15.6355 2.45564 14.8813 3.4807 14.3013L9.6371 10.8084L28.6915 0ZM24.4899 27.5588C23.8154 27.0443 23.2489 26.4868 22.6095 25.964C21.7443 26.8831 20.7291 27.7648 19.8984 28.6679C20.7181 28.3977 21.5757 28.057 22.3868 27.7496C22.3524 29.1539 22.1503 30.9365 22.1691 32.2531L26.5417 27.8456C27.3221 27.056 28.3934 25.9026 29.1879 25.1898C29.7371 24.641 30.2831 24.0886 30.8246 23.5326C30.8516 23.7343 27.8622 28.0456 27.5519 28.7723C28.2054 28.722 28.8608 28.6982 29.5156 28.7008C29.0694 29.7074 28.6059 30.7066 28.1256 31.6978C28.02 31.9178 27.6968 32.625 27.5867 32.8095C27.4296 33.0742 26.7317 33.4724 26.5402 33.8583L26.5814 33.957C26.8031 33.9457 27.0989 33.6358 27.257 33.4765C27.0579 33.9158 26.7754 34.4927 26.6124 34.9342C28.7688 32.6994 31.0055 30.208 33.1411 27.9224C33.2982 24.8677 33.0774 21.6544 33.1688 18.5864C33.172 18.4824 33.1443 18.3714 33.0767 18.2923L27.6813 24.1513C26.7084 25.2015 25.4955 26.572 24.4899 27.5588ZM47.8001 32.9135L48.4182 31.4082L49.8275 35.4026C49.8314 34.6092 49.9164 29.4498 49.7734 29.0652C48.5701 30.1141 47.0983 31.0675 45.9452 32.0751L47.0976 32.0602C47.0738 33.0599 46.8903 34.1074 46.8845 35.0576C47.2052 34.4539 47.5412 33.5668 47.8001 32.9135ZM15.4885 36.4685C15.4139 36.522 15.1863 36.6801 15.162 36.7577C15.0268 37.1884 14.6231 37.3797 14.5066 37.8307L14.5576 37.9189L14.6034 37.9128C15.0025 37.6768 15.9413 37.1145 15.7606 36.5604C15.6505 36.5044 15.6087 36.4704 15.4885 36.4685ZM42.2566 29.1189C42.6204 28.869 43.6917 28.3023 43.5095 27.8304C43.391 27.765 43.3286 27.7144 43.1947 27.718C42.8554 28.0512 42.3236 28.6848 42.0873 29.0968L42.1059 29.1662L42.2566 29.1189ZM50.4778 34.271C50.9826 34.0453 52.2715 33.0243 52.4164 32.5504L52.3636 32.4884C51.9915 32.804 50.6407 33.9257 50.4128 34.2085L50.4778 34.271ZM11.678 31.0247C11.5691 32.0705 11.4107 33.1486 11.2651 34.1908C12.0039 32.819 12.9772 31.196 13.5245 29.7821C13.578 29.6438 13.5815 26.211 13.5292 26.0228L10.7828 28.7491C10.3437 29.1856 9.67818 29.8009 9.28859 30.2501C10.1562 29.854 11.0938 29.4456 11.9444 29.0264C11.8638 29.5665 11.7822 30.5616 11.678 31.0247ZM15.2558 34.5018C15.5333 34.3605 15.7688 34.2616 15.9874 34.0401L16.0236 33.9215C15.9514 33.8373 15.9681 33.8297 15.8784 33.8015C15.6933 33.9596 15.2877 34.2794 15.1795 34.4632L15.2558 34.5018Z" fill="black"/>
<path d="M122.975 24.9888H126.677V39.8599H122.975V24.9888ZM128.759 35.0363C128.759 34.3291 128.752 33.8621 128.739 33.6352C128.712 33.2616 128.679 33.0148 128.639 32.8947C128.585 32.7613 128.492 32.6812 128.359 32.6545C128.225 32.6145 128.012 32.5945 127.718 32.5945H127.518V30.1526C128.052 29.7256 128.732 29.5122 129.56 29.5122C130.76 29.5122 131.568 29.8791 131.981 30.613C132.168 30.9332 132.295 31.3268 132.362 31.7939C132.428 32.2475 132.462 32.808 132.462 33.4751V39.8599H128.759V35.0363Z" fill="black"/>
<path d="M111.443 24.9888H115.145V39.8599H111.443V24.9888ZM115.986 36.9377V32.6945L117.727 29.6523H121.63L118.628 34.4959L121.69 39.8599H117.647L115.986 36.9377Z" fill="black"/>
<path d="M105.506 33.5352C105.506 33.1882 105.492 32.9414 105.466 32.7946C105.439 32.6478 105.359 32.5411 105.226 32.4744C105.105 32.4076 104.879 32.3609 104.545 32.3342C104.345 32.3209 103.911 32.3142 103.244 32.3142C102.604 32.3142 102.01 32.3409 101.463 32.3943L100.402 32.4543V29.8524C101.656 29.6122 103.011 29.4921 104.465 29.4921C105.586 29.4921 106.46 29.5722 107.087 29.7323C107.727 29.8924 108.208 30.1459 108.528 30.4929C108.808 30.8131 108.988 31.2201 109.068 31.7138C109.162 32.2075 109.209 32.8947 109.209 33.7753V39.8599H105.506V33.5352ZM102.544 40C101.623 40 100.942 39.7465 100.502 39.2394C100.062 38.719 99.8415 37.9384 99.8415 36.8977C99.8415 36.2572 99.8882 35.7435 99.9816 35.3565C100.075 34.9562 100.235 34.6426 100.462 34.4158C100.689 34.1756 101.002 34.0088 101.403 33.9154C101.803 33.8087 102.33 33.7553 102.984 33.7553L104.665 33.7953V35.5767H104.465C104.158 35.5767 103.958 35.5833 103.865 35.5967C103.598 35.61 103.458 35.7368 103.444 35.977C103.431 36.057 103.424 36.2238 103.424 36.4774C103.424 36.6775 103.431 36.831 103.444 36.9377C103.471 37.0444 103.511 37.1312 103.564 37.1979C103.631 37.2913 103.731 37.3447 103.865 37.358C104.051 37.3847 104.251 37.398 104.465 37.398H104.665V39.4396C104.372 39.6664 104.058 39.8132 103.724 39.8799C103.404 39.96 103.011 40 102.544 40Z" fill="black"/>
<path d="M94.2949 24.9888H97.9976V39.8599H94.2949V24.9888ZM91.4127 40C90.879 40 90.4186 39.9133 90.0317 39.7398C89.6581 39.5663 89.3578 39.2861 89.131 38.8992C88.8775 38.4989 88.6907 37.9651 88.5706 37.298C88.4638 36.6308 88.4105 35.7969 88.4105 34.7961C88.4105 32.8346 88.6506 31.4603 89.131 30.673C89.5847 29.8991 90.3452 29.5122 91.4127 29.5122C91.8931 29.5122 92.2867 29.5522 92.5936 29.6322C92.9005 29.699 93.1874 29.8391 93.4542 30.0526V32.5945H93.2341C92.9405 32.5945 92.727 32.6145 92.5936 32.6545C92.4735 32.6812 92.3801 32.7546 92.3134 32.8747C92.2467 33.0214 92.2066 33.2349 92.1933 33.5151C92.1799 33.7153 92.1733 34.1289 92.1733 34.7561C92.1733 35.3832 92.1799 35.7969 92.1933 35.997C92.2066 36.2772 92.2467 36.4907 92.3134 36.6375C92.3801 36.7709 92.4868 36.851 92.6336 36.8777C92.8204 36.9044 93.0206 36.9177 93.2341 36.9177H93.4542V39.4596C93.1874 39.6597 92.8871 39.7999 92.5536 39.8799C92.2333 39.96 91.853 40 91.4127 40Z" fill="black"/>
<path d="M82.7739 33.5352C82.7739 33.1882 82.7605 32.9414 82.7339 32.7946C82.7072 32.6478 82.6271 32.5411 82.4937 32.4744C82.3736 32.4076 82.1468 32.3609 81.8132 32.3342C81.613 32.3209 81.1794 32.3142 80.5122 32.3142C79.8717 32.3142 79.2779 32.3409 78.7309 32.3943L77.6701 32.4543V29.8524C78.9243 29.6122 80.2787 29.4921 81.7331 29.4921C82.8539 29.4921 83.7279 29.5722 84.3551 29.7323C84.9955 29.8924 85.4759 30.1459 85.7961 30.4929C86.0764 30.8131 86.2565 31.2201 86.3366 31.7138C86.43 32.2075 86.4767 32.8947 86.4767 33.7753V39.8599H82.7739V33.5352ZM79.8117 40C78.891 40 78.2105 39.7465 77.7701 39.2394C77.3298 38.719 77.1096 37.9384 77.1096 36.8977C77.1096 36.2572 77.1564 35.7435 77.2498 35.3565C77.3432 34.9562 77.5033 34.6426 77.7301 34.4158C77.9569 34.1756 78.2705 34.0088 78.6708 33.9154C79.0711 33.8087 79.5982 33.7553 80.252 33.7553L81.9333 33.7953V35.5767H81.7331C81.4262 35.5767 81.2261 35.5833 81.1327 35.5967C80.8658 35.61 80.7257 35.7368 80.7123 35.977C80.699 36.057 80.6923 36.2238 80.6923 36.4774C80.6923 36.6775 80.699 36.831 80.7123 36.9377C80.739 37.0444 80.7791 37.1312 80.8324 37.1979C80.8992 37.2913 80.9992 37.3447 81.1327 37.358C81.3195 37.3847 81.5196 37.398 81.7331 37.398H81.9333V39.4396C81.6397 39.6664 81.3261 39.8132 80.9926 39.8799C80.6723 39.96 80.2787 40 79.8117 40Z" fill="black"/>
<path d="M66.8817 26.0896H70.8847V39.8599H66.8817V26.0896ZM71.7253 36.6375H76.0085V39.8599H71.7253V36.6375Z" fill="black"/>
<path d="M158.27 2.93985H161.973V17.811H158.27V2.93985ZM155.388 17.9511C154.854 17.9511 154.394 17.8643 154.007 17.6909C153.633 17.5174 153.333 17.2372 153.106 16.8503C152.853 16.45 152.666 15.9162 152.546 15.2491C152.439 14.5819 152.385 13.7479 152.385 12.7472C152.385 10.7857 152.626 9.41136 153.106 8.6241C153.56 7.85019 154.32 7.46323 155.388 7.46323C155.868 7.46323 156.262 7.50326 156.569 7.58332C156.876 7.65004 157.162 7.79015 157.429 8.00364V10.5455H157.209C156.916 10.5455 156.702 10.5656 156.569 10.6056C156.449 10.6323 156.355 10.7057 156.288 10.8257C156.222 10.9725 156.182 11.186 156.168 11.4662C156.155 11.6664 156.148 12.08 156.148 12.7072C156.148 13.3343 156.155 13.7479 156.168 13.9481C156.182 14.2283 156.222 14.4418 156.288 14.5886C156.355 14.722 156.462 14.8021 156.609 14.8287C156.795 14.8554 156.996 14.8688 157.209 14.8688H157.429V17.4107C157.162 17.6108 156.862 17.7509 156.529 17.831C156.208 17.911 155.828 17.9511 155.388 17.9511Z" fill="black"/>
<path d="M145.768 11.7064H147.169C147.169 10.9592 147.095 10.4788 146.949 10.2653C146.869 10.1452 146.762 10.0718 146.628 10.0452C146.495 10.0051 146.301 9.98511 146.048 9.98511H145.768V7.44321H146.048C147.195 7.44321 148.076 7.53661 148.69 7.72342C149.317 7.91022 149.777 8.21712 150.071 8.64411C150.338 9.01772 150.498 9.49808 150.551 10.0852C150.618 10.6723 150.651 11.5529 150.651 12.7272V13.5278H145.768V11.7064ZM146.448 17.9711C145.221 17.9711 144.253 17.871 143.546 17.6709C142.852 17.4574 142.332 17.1238 141.985 16.6701C141.678 16.2698 141.478 15.7761 141.384 15.189C141.291 14.5886 141.244 13.7679 141.244 12.7272C141.244 11.7664 141.278 11.0059 141.344 10.4455C141.411 9.87169 141.551 9.38466 141.765 8.98436C142.005 8.54403 142.372 8.20378 142.866 7.9636C143.373 7.71007 144.06 7.54995 144.927 7.48324V13.5278C144.927 13.9814 144.947 14.3083 144.987 14.5085C145.027 14.6953 145.121 14.8354 145.267 14.9288C145.427 15.0356 145.674 15.0956 146.008 15.1089C146.435 15.1356 146.889 15.149 147.369 15.149C148.223 15.149 148.843 15.129 149.23 15.0889L150.251 15.0089V17.5908C149.717 17.7509 148.983 17.8577 148.049 17.911C147.596 17.9511 147.062 17.9711 146.448 17.9711Z" fill="black"/>
<path d="M132.32 7.60336H134.202V4.64114H137.904V7.60336H140.146V10.4255H132.32V7.60336ZM134.202 11.2261H137.904V17.811H134.202V11.2261Z" fill="black"/>
<path d="M129.142 8.18376C129.422 7.91689 129.749 7.73009 130.122 7.62334C130.509 7.50325 130.983 7.44321 131.544 7.44321V10.7857C130.943 10.7857 130.449 10.8257 130.062 10.9058C129.689 10.9859 129.382 11.126 129.142 11.3261V8.18376ZM124.598 7.60333H128.301V17.811H124.598V7.60333Z" fill="black"/>
<path d="M118.662 11.4862C118.662 11.1393 118.648 10.8925 118.621 10.7457C118.595 10.5989 118.515 10.4922 118.381 10.4254C118.261 10.3587 118.034 10.312 117.701 10.2853C117.501 10.272 117.067 10.2653 116.4 10.2653C115.759 10.2653 115.166 10.292 114.618 10.3454L113.558 10.4054V7.80348C114.812 7.5633 116.166 7.44321 117.621 7.44321C118.742 7.44321 119.616 7.52327 120.243 7.68339C120.883 7.84351 121.364 8.09703 121.684 8.44395C121.964 8.76419 122.144 9.17117 122.224 9.66487C122.318 10.1586 122.364 10.8458 122.364 11.7264V17.811H118.662V11.4862ZM115.699 17.9511C114.779 17.9511 114.098 17.6975 113.658 17.1905C113.217 16.6701 112.997 15.8895 112.997 14.8487C112.997 14.2083 113.044 13.6946 113.137 13.3076C113.231 12.9073 113.391 12.5937 113.618 12.3669C113.845 12.1267 114.158 11.9599 114.558 11.8665C114.959 11.7598 115.486 11.7064 116.14 11.7064L117.821 11.7464V13.5278H117.621C117.314 13.5278 117.114 13.5344 117.02 13.5478C116.753 13.5611 116.613 13.6879 116.6 13.9281C116.587 14.0081 116.58 14.1749 116.58 14.4284C116.58 14.6286 116.587 14.782 116.6 14.8888C116.627 14.9955 116.667 15.0823 116.72 15.149C116.787 15.2424 116.887 15.2957 117.02 15.3091C117.207 15.3358 117.407 15.3491 117.621 15.3491H117.821V17.3906C117.527 17.6175 117.214 17.7643 116.88 17.831C116.56 17.911 116.166 17.9511 115.699 17.9511Z" fill="black"/>
<path d="M101.671 2.93985H105.374V17.811H101.671V2.93985ZM107.455 12.9874C107.455 12.2802 107.449 11.8132 107.435 11.5863C107.409 11.2127 107.375 10.9659 107.335 10.8458C107.282 10.7123 107.188 10.6323 107.055 10.6056C106.922 10.5656 106.708 10.5455 106.415 10.5455H106.214V8.10371C106.748 7.67673 107.429 7.46323 108.256 7.46323C109.457 7.46323 110.264 7.83018 110.678 8.56406C110.865 8.8843 110.991 9.27792 111.058 9.74494C111.125 10.1986 111.158 10.759 111.158 11.4262V17.811H107.455V12.9874Z" fill="black"/>
<path d="M98.9921 10.3454C98.6586 10.292 98.1782 10.2653 97.5511 10.2653C97.1374 10.2653 96.8439 10.292 96.6704 10.3454V7.44321C97.6178 7.45655 98.5985 7.57664 99.6126 7.80348V10.4054L98.9921 10.3454ZM96.5303 17.9711C95.4895 17.9711 94.6622 17.8443 94.0484 17.5908C93.4346 17.3373 92.981 16.9637 92.6874 16.47C92.4206 16.043 92.2471 15.5426 92.167 14.9688C92.1003 14.3951 92.067 13.6478 92.067 12.7272C92.067 11.8865 92.1003 11.186 92.167 10.6256C92.2337 10.0652 92.3739 9.57147 92.5873 9.14448C92.8409 8.65078 93.2212 8.27049 93.7282 8.00363C94.2486 7.72342 94.9491 7.54995 95.8298 7.48324V12.7071C95.8298 13.2943 95.8431 13.7346 95.8698 14.0281C95.9098 14.3217 95.9832 14.5485 96.09 14.7086C96.2101 14.8688 96.3768 14.9822 96.5903 15.0489C96.8172 15.1156 97.1374 15.149 97.5511 15.149C98.2583 15.149 98.7453 15.129 99.0122 15.0889L99.6927 15.0089V17.6108C98.7053 17.851 97.6511 17.9711 96.5303 17.9711Z" fill="black"/>
<path d="M86.3849 12.9874C86.3849 12.2802 86.3782 11.8131 86.3649 11.5863C86.3382 11.2127 86.3048 10.9658 86.2648 10.8458C86.2114 10.7123 86.118 10.6323 85.9846 10.6056C85.8512 10.5655 85.6377 10.5455 85.3441 10.5455H85.144V8.04366C85.6643 7.6567 86.3449 7.46323 87.1855 7.46323C88.3864 7.46323 89.1937 7.83017 89.6073 8.56405C89.7941 8.88429 89.9209 9.27792 89.9876 9.74493C90.0543 10.1986 90.0877 10.759 90.0877 11.4262V17.811H86.3849V12.9874ZM80.6006 7.60333H84.3033V17.811H80.6006V7.60333Z" fill="black"/>
<path d="M72.5459 17.9711C71.1449 17.9711 70.0641 17.8577 69.3035 17.6308C68.5429 17.404 67.9825 17.037 67.6222 16.53C67.2887 16.063 67.0818 15.4692 67.0018 14.7487C66.9217 14.0281 66.8817 12.954 66.8817 11.5262V4.04065H70.8847V12.3268C70.8847 12.8206 70.898 13.2942 70.9247 13.7479C70.9514 14.1082 71.0114 14.3684 71.1048 14.5285C71.1982 14.6886 71.3584 14.7887 71.5852 14.8287C71.7854 14.8821 72.1056 14.9088 72.5459 14.9088H73.0063C73.113 14.9088 73.2331 14.8954 73.3665 14.8688V17.9511C73.2731 17.9644 73.1397 17.9711 72.9662 17.9711H72.5459ZM74.2072 4.04065H78.2102V11.5262C78.2102 12.8339 78.1835 13.8213 78.1301 14.4885C78.0767 15.1556 77.9299 15.7161 77.6898 16.1697C77.4229 16.6901 77.0159 17.0904 76.4689 17.3706C75.9218 17.6508 75.1679 17.831 74.2072 17.911V4.04065Z" fill="black"/>
</svg>
