<svg width="32" height="32" viewBox="0 0 32 32" fill="none" xmlns="http://www.w3.org/2000/svg">
<g clip-path="url(#clip0_156_9525)">
<path d="M0.684068 15.8086C0.683318 18.4972 1.39126 21.1224 2.73741 23.4363L0.555328 31.3423L8.70869 29.2209C10.9638 30.4391 13.4905 31.0775 16.0581 31.0776H16.0649C24.5411 31.0776 31.4409 24.2332 31.4445 15.8206C31.4462 11.7441 29.8478 7.91076 26.9438 5.02679C24.0402 2.14307 20.1787 0.554107 16.0642 0.552246C7.58703 0.552246 0.687693 7.39628 0.684193 15.8086" fill="url(#paint0_linear_156_9525)"/>
<path d="M0.135357 15.8035C0.134482 18.5889 0.8678 21.308 2.26194 23.7048L0.00161743 31.8942L8.44733 29.6967C10.7744 30.9558 13.3944 31.6196 16.0605 31.6206H16.0674C24.8477 31.6206 31.9954 24.53 31.9991 15.8162C32.0006 11.5932 30.3447 7.62208 27.337 4.63479C24.3288 1.64788 20.3292 0.00173643 16.0674 0C7.28555 0 0.138857 7.08961 0.135357 15.8035ZM5.16509 23.292L4.84974 22.7953C3.52409 20.7036 2.8244 18.2865 2.8254 15.8045C2.82815 8.56174 8.76818 2.66915 16.0724 2.66915C19.6096 2.67064 22.9338 4.03895 25.4341 6.52155C27.9343 9.0044 29.3101 12.3049 29.3092 15.8152C29.306 23.058 23.3658 28.9513 16.0674 28.9513H16.0621C13.6857 28.9501 11.355 28.3168 9.32239 27.12L8.83868 26.8354L3.82682 28.1393L5.16509 23.292Z" fill="url(#paint1_linear_156_9525)"/>
<path d="M12.085 9.19662C11.7868 8.53888 11.473 8.52561 11.1894 8.51407C10.9571 8.50415 10.6917 8.5049 10.4264 8.5049C10.1609 8.5049 9.72961 8.604 9.36501 8.99904C9.00004 9.39445 7.97162 10.35 7.97162 12.2934C7.97162 14.2369 9.39813 16.1152 9.59699 16.379C9.7961 16.6423 12.3509 20.7582 16.3971 22.3415C19.7598 23.6574 20.4441 23.3957 21.174 23.3297C21.9039 23.264 23.5293 22.3744 23.8609 21.452C24.1927 20.5297 24.1927 19.7391 24.0932 19.5739C23.9937 19.4093 23.7283 19.3105 23.3302 19.113C22.9321 18.9156 20.9749 17.9598 20.61 17.8279C20.245 17.6962 19.9797 17.6305 19.7142 18.026C19.4487 18.4209 18.6864 19.3105 18.4541 19.5739C18.2219 19.838 17.9896 19.8708 17.5916 19.6733C17.1933 19.4751 15.9112 19.0584 14.3902 17.7128C13.2068 16.6658 12.4079 15.3727 12.1757 14.9772C11.9434 14.5823 12.1508 14.3682 12.3504 14.1714C12.5293 13.9944 12.7486 13.7101 12.9479 13.4795C13.1463 13.2488 13.2126 13.0842 13.3453 12.8208C13.4782 12.5571 13.4117 12.3264 13.3123 12.1288C13.2126 11.9313 12.439 9.97764 12.085 9.19662Z" fill="white"/>
</g>
<defs>
<linearGradient id="paint0_linear_156_9525" x1="15.9999" y1="31.3423" x2="15.9999" y2="0.552246" gradientUnits="userSpaceOnUse">
<stop stop-color="#1FAF38"/>
<stop offset="1" stop-color="#60D669"/>
</linearGradient>
<linearGradient id="paint1_linear_156_9525" x1="16.0004" y1="31.8942" x2="16.0004" y2="0" gradientUnits="userSpaceOnUse">
<stop stop-color="#F9F9F9"/>
<stop offset="1" stop-color="white"/>
</linearGradient>
<clipPath id="clip0_156_9525">
<rect width="32" height="32" fill="white"/>
</clipPath>
</defs>
</svg>
